<?xml version="1.0" standalone="no"?>
<!DOCTYPE svg PUBLIC "-//W3C//DTD SVG 20010904//EN" "http://www.w3.org/TR/2001/REC-SVG-20010904/DTD/svg10.dtd">
<!-- Created using Krita: https://krita.org -->
<svg xmlns="http://www.w3.org/2000/svg" 
    xmlns:xlink="http://www.w3.org/1999/xlink"
    xmlns:krita="http://krita.org/namespaces/svg/krita"
    xmlns:sodipodi="http://sodipodi.sourceforge.net/DTD/sodipodi-0.dtd"
    width="259.2pt"
    height="259.2pt"
    viewBox="0 0 259.2 259.2">
<defs/>
<ellipse id="shape0" transform="translate(107.759998252988, 108.059998244047)" rx="21.8400017470121" ry="21.5400017559528" cx="21.8400017470121" cy="21.5400017559528" fill="none" stroke="#77b3fe" stroke-width="9.6" stroke-linecap="square" stroke-linejoin="bevel"/><circle id="shape1" transform="translate(124.56, 124.8)" r="4.91999999999999" cx="4.91999999999999" cy="4.91999999999999" fill="none" stroke="#77b3fe" stroke-width="9.6" stroke-linecap="square" stroke-linejoin="bevel"/><path id="shape2" transform="translate(129.6, 71.9999971389784)" fill="none" stroke="#77b3fe" stroke-width="9.6" stroke-linecap="square" stroke-linejoin="miter" stroke-miterlimit="2" d="M0 0L0 24" sodipodi:nodetypes="cc"/><path id="shape01" transform="translate(129.6, 163.223991256004)" fill="none" stroke="#77b3fe" stroke-width="9.6" stroke-linecap="square" stroke-linejoin="miter" stroke-miterlimit="2" d="M0 0L0 24" sodipodi:nodetypes="cc"/><path id="shape02" transform="matrix(0 1 -1 0 187.043998152854 129.6)" fill="none" stroke="#77b3fe" stroke-width="9.6" stroke-linecap="square" stroke-linejoin="miter" stroke-miterlimit="2" d="M0 0C0 8 0 16 0 24" sodipodi:nodetypes="cc"/><path id="shape03" transform="matrix(0 1 -1 0 95.9280049495665 129.6)" fill="none" stroke="#77b3fe" stroke-width="9.6" stroke-linecap="square" stroke-linejoin="miter" stroke-miterlimit="2" d="M0 0C0 8 0 16 0 24" sodipodi:nodetypes="cc"/><path id="shape3" transform="translate(57.5999959945711, 153.359989335545)" fill="none" stroke="#77b3fe" stroke-width="9.6" stroke-linecap="square" stroke-linejoin="miter" stroke-miterlimit="2" d="M47.88 0L0 48.24" sodipodi:nodetypes="cc"/><path id="shape04" transform="translate(153.623990011462, 87.1199939417887)" fill="none" stroke="#77b3fe" stroke-width="9.6" stroke-linecap="square" stroke-linejoin="miter" stroke-miterlimit="2" d="M18.816 0L0 18.624" sodipodi:nodetypes="cc"/><path id="shape4" transform="translate(76.6799946677727, 76.6799946677727)" fill="none" stroke="#77b3fe" stroke-width="9.6" stroke-linecap="square" stroke-linejoin="miter" stroke-miterlimit="2" d="M28.8 28.8L0 0" sodipodi:nodetypes="cc"/><path id="shape5" transform="translate(153.359989335545, 153.359989335545)" fill="none" stroke="#77b3fe" stroke-width="9.6" stroke-linecap="square" stroke-linejoin="miter" stroke-miterlimit="2" d="M0 0L19.08 19.44" sodipodi:nodetypes="cc"/><circle id="shape05" transform="translate(124.68, 47.7174150543647)" r="4.91999999999999" cx="4.91999999999999" cy="4.91999999999999" fill="none" stroke="#77b3fe" stroke-width="9.6" stroke-linecap="square" stroke-linejoin="bevel"/><circle id="shape06" transform="translate(201.677404339842, 124.68)" r="4.91999999999999" cx="4.91999999999999" cy="4.91999999999999" fill="none" stroke="#77b3fe" stroke-width="9.6" stroke-linecap="square" stroke-linejoin="bevel"/><circle id="shape07" transform="translate(124.68, 201.677404339842)" r="4.91999999999999" cx="4.91999999999999" cy="4.91999999999999" fill="none" stroke="#77b3fe" stroke-width="9.6" stroke-linecap="square" stroke-linejoin="bevel"/><circle id="shape08" transform="translate(47.5548247514679, 124.68)" r="4.91999999999999" cx="4.91999999999999" cy="4.91999999999999" fill="none" stroke="#77b3fe" stroke-width="9.6" stroke-linecap="square" stroke-linejoin="bevel"/><ellipse id="shape6" transform="translate(37.6399996995928, 38.7199989736088)" rx="17.16" ry="16.92" cx="17.16" cy="16.92" fill="none" stroke="#77b3fe" stroke-width="9.6" stroke-linecap="square" stroke-linejoin="bevel"/><ellipse id="shape09" transform="translate(18.4454108987321, 206.037396504222)" rx="17.16" ry="16.92" cx="17.16" cy="16.92" fill="none" stroke="#77b3fe" stroke-width="9.6" stroke-linecap="square" stroke-linejoin="bevel"/><ellipse id="shape010" transform="translate(176.645398506936, 48.1974088709838)" rx="17.16" ry="16.92" cx="17.16" cy="16.92" fill="none" stroke="#77b3fe" stroke-width="9.6" stroke-linecap="square" stroke-linejoin="bevel"/><ellipse id="shape011" transform="translate(176.925399182853, 177.237398506936)" rx="17.16" ry="16.92" cx="17.16" cy="16.92" fill="none" stroke="#77b3fe" stroke-width="9.6" stroke-linecap="square" stroke-linejoin="bevel"/>
</svg>
